<?xml version="1.0" encoding="utf-8"?>
<!-- Generator: Adobe Illustrator 18.1.1, SVG Export Plug-In . SVG Version: 6.00 Build 0)  -->
<svg version="1.1" id="Layer_1" xmlns="http://www.w3.org/2000/svg" xmlns:xlink="http://www.w3.org/1999/xlink" x="0px" y="0px"
	 viewBox="0 0 203 52" enable-background="new 0 0 203 52" xml:space="preserve">
<g>
	<path fill="#FCD87A" d="M5.6,16V4.4h4.1V16h7.8v3.3H9.6v25.9c0,2.4,1.1,3.6,3.6,3.6c1.4,0,2.9-0.3,4.1-0.7v3.4
		C16,51.6,14.6,52,13.3,52c-5.8,0-7.7-1.9-7.7-6.2V19.3H0.3V16H5.6z"/>
	<path fill="#FCD87A" d="M22.4,51.4V2.3h4.1v19.3c3.8-3.9,6.9-6.3,12.1-6.3c7.3,0,10.5,4.2,10.5,11.9v24.1h-4.1V27.6
		c0-5.8-1.8-9-7.2-9c-4.4,0-6.8,2.7-11.3,6.7v26H22.4z"/>
	<path fill="#FCD87A" d="M59.4,33.8c0,8,3.3,15,11.4,15c4.6,0,6.8-1.6,10.3-7.1l3.3,1.8c-3.8,6.3-7.3,8.6-14,8.6
		c-9.2,0-15.1-5.9-15.1-18.4c0-10.9,5.6-18.4,14.6-18.4c9.6,0,14.1,7.5,14.1,18.5H59.4z M80,30.6c-0.8-7.3-4-11.9-10.2-12
		c-7.2-0.1-10.3,7.3-10.3,12H80z"/>
	<path fill="#FCD87A" d="M89,51.4V16h7.8v6.1h0.1c2-4.2,4.9-6.6,9.9-6.7v8.9c-0.4-0.1-0.9-0.1-1.5-0.1c-4.2,0-7.9,4.8-7.9,5.7v21.5
		H89z"/>
	<path fill="#FCD87A" d="M139.6,16v35.4h-7.8v-3.8c-3.1,2.2-6.7,4.5-10.9,4.5c-7.1,0-10.5-4.6-10.5-11.8V16h8.4v23
		c0,4.8,1.5,6.3,4.4,6.3c3.7,0,6.5-2.1,7.9-3.7V16H139.6z"/>
	<path fill="#FCD87A" d="M152.3,35c0.1,7.3,3.4,10.2,7.3,10.2c3.9,0,5.8-1.8,7.9-4.2l6.1,3.8c-3.3,5-8,7.2-14.8,7.2
		c-9.2,0-15-7.1-15-18.4c0-11.2,5.8-18.4,15.4-18.4c9.2-0.1,14.4,7.8,14.4,16.3V35H152.3z M165.9,29.3c-0.1-4.9-2.7-7.8-6.8-7.8
		c-4.1,0-6.7,2.9-6.8,7.8H165.9z"/>
	<path fill="#FCD87A" d="M196.1,25.3c-1.7-1.8-3.9-3.7-6.6-3.7c-3.3,0-4.8,1.4-4.8,3.5c0,6.1,17.7,3.5,17.7,16.4
		c0,7.3-5.6,10.6-13,10.6c-5.6,0-10.3-2.5-13.4-7.1l5.6-4.2c2,2.7,4.6,5.1,8.2,5.1c3,0,5-1.6,5-4c0-6.1-17.7-3.9-17.7-16.2
		c0-6.6,5.6-10.3,11.7-10.3c4.7,0,9.4,1.8,12.4,5.4L196.1,25.3z"/>
</g>
<g>
	<path fill="#FCD87A" d="M34.7,0.3H38c2.7,0,4.5,1.5,4.5,5.1c0,3.6-1.9,5.1-4.5,5.1h-3.3V0.3z M36.6,8.7h1.3c2.2,0,2.7-1.6,2.7-3.4
		c0-1.8-0.5-3.4-2.7-3.4h-1.3V8.7z"/>
	<path fill="#FCD87A" d="M48.3,10.4V0.3H55v1.6h-4.8v2.4h3.5v1.6h-3.5v2.8h4.9v1.6H48.3z"/>
	<path fill="#FCD87A" d="M65.7,2.9c-0.3-0.8-0.9-1.3-1.8-1.3c-0.8,0-1.4,0.3-1.4,1.1c0,1.7,5.2,1.4,5.2,4.6c0,2.1-1.3,3.1-3.5,3.1
		c-1.7,0-3.2-0.9-3.8-2.4L62,7.4C62.4,8.4,63,9,64.2,9c1,0,1.7-0.4,1.7-1.3c0-2-5.2-1.6-5.2-4.7c0-1.8,1.5-2.8,3.3-2.8
		c1.6,0,3,0.8,3.6,2.3L65.7,2.9z"/>
	<path fill="#FCD87A" d="M74,10.4V0.3h1.9v10.1H74z"/>
	<path fill="#FCD87A" d="M88,3.2c-0.5-1-1-1.4-2-1.4c-1.4,0-2.1,1.4-2.1,3.7c0,2.1,0.8,3.5,2.1,3.5c1.3,0,2.1-0.8,2.1-2h-1.9V5.3H90
		v5.1h-1.4v-1c-0.8,0.9-1.6,1.2-2.6,1.2c-2.7,0-4-2.2-4-5c0-2.6,1-5.3,4.2-5.3c2,0,3.2,1.1,3.7,2.6L88,3.2z"/>
	<path fill="#FCD87A" d="M96.2,10.4V0.3h2l4,6.9h0V0.3h1.8v10.1h-1.9L98,3.2h0v7.2H96.2z"/>
	<path fill="#FCD87A" d="M118.9,0.3h3.8c2,0,3.3,0.7,3.4,2.5c0,1-0.4,1.9-1.5,2.3c1.3,0.5,1.8,1.1,1.8,2.7c0,1.6-1.1,2.7-3.7,2.7
		h-3.7V0.3z M120.8,4.3h1.9c0.9,0,1.4-0.5,1.4-1.2c0-0.7-0.5-1.2-1.4-1.2h-1.9V4.3z M120.8,8.8h1.9c1.1,0,1.6-0.5,1.6-1.5
		c0-1-0.5-1.5-1.6-1.5h-1.9V8.8z"/>
	<path fill="#FCD87A" d="M135.2,4.3l1.7-4h2l-2.8,6.1v4h-1.9v-4l-2.8-6.1h2L135.2,4.3z"/>
</g>
</svg>
